<?xml version="1.0" encoding="UTF-8"?>
<svg width="106px" height="106px" viewBox="0 0 106 106" version="1.1" xmlns="http://www.w3.org/2000/svg"
>
    <title>􀈤</title>
    <g id="􀈤" stroke="none" stroke-width="1" fill="none" fill-rule="evenodd">
        <g transform="translate(10.154596, 21.365341)" fill="#000000" fill-rule="nonzero" id="形状">
            <path d="M11.9153595,63.2019348 L73.7030334,63.2019348 C77.64151,63.2019348 80.6120224,62.2056478 82.6145706,60.2130737 C84.6171188,58.2204997 85.6183929,55.2843323 85.6183929,51.4045715 L85.6183929,31.1611633 C85.6183929,29.8253784 85.5444336,28.6936874 85.3965149,27.7660904 C85.2485962,26.8384933 84.9965134,26.0030162 84.6402664,25.2596588 C84.2840195,24.5163015 83.7955678,23.7358704 83.1749115,22.9183655 L71.3515778,7.15711975 C69.9337413,5.27520243 68.6585541,3.81888072 67.5260162,2.7881546 C66.3934784,1.75742849 65.1301473,1.03505452 63.7360229,0.621032715 C62.3418986,0.207010905 60.5508779,0 58.3629608,0 L27.2554321,0 C25.0675151,0 23.2776235,0.207010905 21.8857574,0.621032715 C20.4938914,1.03505452 19.2305603,1.75742849 18.0957642,2.7881546 C16.960968,3.81888072 15.6946259,5.27520243 14.2967377,7.15711975 L2.44404602,22.9183655 C1.82752991,23.740387 1.34114838,24.5219472 0.984901428,25.2630463 C0.62865448,26.0041453 0.375442505,26.8384933 0.225265503,27.7660904 C0.075088501,28.6936874 0,29.8253784 0,31.1611633 L0,51.4045715 C0,55.2843323 1.00616709,58.2204997 3.01850128,60.2130737 C5.03083547,62.2056478 7.99645487,63.2019348 11.9153595,63.2019348 Z M42.8128662,40.9627533 C40.9885356,40.9627533 39.4079132,40.5376282 38.0709991,39.6873779 C36.7340851,38.8371277 35.7042999,37.7344182 34.9816437,36.3792496 C34.2589874,35.0240809 33.8976593,33.5863902 33.8976593,32.0661774 L33.8976593,31.7855835 C33.8976593,30.9533997 33.6452001,30.2071253 33.1402817,29.5467606 C32.6353633,28.8863958 31.8636831,28.5562134 30.8252411,28.5562134 L9.08740234,28.5562134 C8.42346191,28.5562134 8.02411906,28.3386637 7.88937378,27.9035645 C7.7546285,27.4684652 7.84947713,27.0284729 8.17391968,26.5835876 L21.3313446,8.90391541 C22.1036835,7.86246236 22.972847,7.11910502 23.9388351,6.67384338 C24.9048233,6.22858175 25.9917247,6.00595093 27.1995392,6.00595093 L58.4256287,6.00595093 C59.6488749,6.00595093 60.738505,6.22858175 61.694519,6.67384338 C62.650533,7.11910502 63.5148977,7.86246236 64.2876129,8.90391541 L77.4444733,26.5835876 C77.7493439,27.0284729 77.8344065,27.4684652 77.6996613,27.9035645 C77.564916,28.3386637 77.1753591,28.5562134 76.5309906,28.5562134 L54.7931519,28.5562134 C53.7547099,28.5562134 52.9880168,28.8863958 52.4930725,29.5467606 C51.9981283,30.2071253 51.7506561,30.9533997 51.7506561,31.7855835 L51.7506561,32.0661774 C51.7506561,33.5863902 51.3854701,35.0240809 50.655098,36.3792496 C49.9247259,37.7344182 48.8900477,38.8371277 47.5510635,39.6873779 C46.2120794,40.5376282 44.6326803,40.9627533 42.8128662,40.9627533 Z"></path>
        </g>
    </g>
</svg>